<mxfile host="app.diagrams.net" modified="2024-02-19T10:08:02.240Z" agent="Mozilla/5.0 (Windows NT 10.0; Win64; x64) AppleWebKit/537.36 (KHTML, like Gecko) Chrome/121.0.0.0 Safari/537.36" version="23.1.5" etag="c3Cj5g3gNc6-7W09TRKh" type="github">
  <diagram name="Seite-1" id="WatTEsJKHM8cdT7r6WNc">
    <mxGraphModel>
      <root>
        <mxCell id="0" />
        <mxCell id="1" parent="0" />
      </root>
    </mxGraphModel>
  </diagram>
</mxfile>
